<?xml version="1.0" encoding="UTF-8" standalone="no"?>
<!DOCTYPE svg PUBLIC "-//W3C//DTD SVG 1.1//EN" "http://www.w3.org/Graphics/SVG/1.1/DTD/svg11.dtd">
<svg width="100%" height="100%" viewBox="0 0 4200 1245" version="1.1" xmlns="http://www.w3.org/2000/svg" xmlns:xlink="http://www.w3.org/1999/xlink" xml:space="preserve" xmlns:serif="http://www.serif.com/" style="fill-rule:evenodd;clip-rule:evenodd;stroke-linejoin:round;stroke-miterlimit:2;">
    <g transform="matrix(5.55556,0,0,5.55556,0,0)">
        <g transform="matrix(1.15014,0,0,1.15014,-56.7286,-16.88)">
            <g id="Layer-1" serif:id="Layer 1">
                <g transform="matrix(1,0,0,1,212.668,104.219)">
                    <path d="M0,-0.683L0,-25.186L22.68,-25.186C30.202,-25.186 35.9,-20.172 35.9,-12.992C35.9,-5.584 30.316,-0.683 22.68,-0.683L0,-0.683ZM23.478,-38.521L-13.676,-38.521L-13.676,37.838L0,37.838L0,12.309L23.478,12.309C38.18,12.309 49.804,1.824 49.804,-13.106C49.804,-27.694 38.407,-38.521 23.478,-38.521" style="fill:white;fill-rule:nonzero;"/>
                </g>
                <g transform="matrix(1,0,0,1,299.559,142.057)">
                    <path d="M0,-56.642C-7.294,-56.642 -12.764,-53.223 -15.272,-47.297L-15.728,-47.297L-15.728,-56.642L-28.378,-56.642L-28.378,0L-15.272,0L-15.272,-27.694C-15.272,-37.496 -9.117,-43.422 -0.228,-43.422L11.511,-43.422L11.511,-56.642L0,-56.642Z" style="fill:white;fill-rule:nonzero;"/>
                </g>
                <g transform="matrix(1,0,0,1,345.273,96.3552)">
                    <path d="M0,34.761C-10.485,34.761 -17.438,27.011 -17.438,17.438C-17.438,7.751 -10.599,0.115 0,0.115C10.257,0.115 17.095,7.751 17.095,17.438C17.095,26.897 10.257,34.761 0,34.761M0,47.297C18.12,47.297 30.201,34.077 30.201,17.324C30.201,0.571 18.234,-12.536 0,-12.536C-18.577,-12.536 -30.658,0.571 -30.658,17.324C-30.658,34.077 -18.463,47.297 0,47.297" style="fill:white;fill-rule:nonzero;"/>
                </g>
                <g transform="matrix(1,0,0,1,450.789,142.057)">
                    <path d="M0,-58.124C-8.206,-58.124 -14.702,-54.249 -18.691,-47.981L-18.919,-47.981C-22.11,-54.135 -28.036,-58.124 -36.014,-58.124C-43.194,-58.124 -48.892,-54.363 -52.425,-48.893L-52.767,-48.893L-52.767,-56.642L-65.418,-56.642L-65.418,0L-52.311,0L-52.311,-29.176C-52.311,-38.635 -47.183,-45.246 -39.775,-45.359C-33.051,-45.587 -28.492,-40.915 -28.492,-32.595L-28.492,0L-15.386,0L-15.386,-29.974C-15.386,-41.143 -8.776,-45.474 -2.963,-45.474C3.761,-45.474 8.206,-41.029 8.206,-32.709L8.206,0L21.312,0L21.312,-34.532C21.312,-49.576 12.536,-58.124 0,-58.124" style="fill:white;fill-rule:nonzero;"/>
                </g>
                <g transform="matrix(1,0,0,1,515.406,117.439)">
                    <path d="M0,13.677C-10.257,13.677 -17.095,5.813 -17.095,-3.76C-17.095,-13.447 -10.257,-21.198 0,-21.198C10.371,-21.198 17.323,-13.561 17.323,-3.76C17.323,6.041 10.371,13.677 0,13.677M2.621,-33.62C-5.926,-33.506 -12.764,-29.631 -16.639,-24.16L-17.209,-24.16L-17.209,-32.024L-30.201,-32.024L-30.201,47.411L-17.209,47.411L-17.209,16.412L-16.639,16.412C-12.878,22.111 -6.04,26.213 2.621,26.213C18.577,26.441 30.543,14.133 30.543,-3.646C30.543,-21.198 18.919,-33.734 2.621,-33.62" style="fill:white;fill-rule:nonzero;"/>
                </g>
                <g transform="matrix(1,0,0,1,597.15,122.34)">
                    <path d="M0,-36.925L-24.503,-36.925L-24.503,-56.642L-37.609,-56.642L-37.609,-36.925L-46.726,-36.925L-46.726,-24.161L-37.609,-24.161L-37.609,4.331C-37.609,14.018 -31.797,19.717 -21.995,19.717L0,19.717L0,6.952L-19.374,6.952C-22.679,6.952 -24.503,5.129 -24.503,2.052L-24.503,-24.161L0,-24.161L0,-36.925Z" style="fill:white;fill-rule:nonzero;"/>
                </g>
                <g transform="matrix(1,0,0,1,607.729,75.5001)">
                    <path d="M0,51.057C0,60.858 5.698,66.557 15.955,66.557L26.554,66.557L26.554,53.906L18.235,53.906C15.044,53.906 13.106,52.083 13.106,48.892L13.106,-15.5L0,-15.5L0,51.057Z" style="fill:white;fill-rule:nonzero;"/>
                </g>
                <g transform="matrix(1,0,0,1,666.361,119.491)">
                    <path d="M0,11.283L-18.235,-34.076L-32.709,-34.076L-6.496,29.062C-7.864,31.455 -9.915,32.481 -13.106,32.481L-27.694,32.481L-27.694,45.359L-12.992,45.359C-3.533,45.359 2.279,40.687 5.584,31.569L29.29,-34.076L15.841,-34.076L0,11.283Z" style="fill:white;fill-rule:nonzero;"/>
                </g>
                <g transform="matrix(1,0,0,1,169.156,93.0575)">
                    <path d="M0,-8.432L-16.258,-8.432C-19.109,-8.432 -21.414,-10.73 -21.414,-13.572L-21.414,-28.624C-21.414,-31.058 -23.419,-33.057 -25.861,-33.057L-63.821,-33.057C-66.262,-33.057 -68.267,-31.058 -68.267,-28.624L-68.267,-10.811C-68.267,-8.377 -66.262,-6.378 -63.821,-6.378L-28.616,-6.378C-25.765,-6.378 -23.46,-4.08 -23.46,-1.239L-23.46,21.347C-23.46,23.156 -21.974,24.625 -20.173,24.625L0,24.625C1.814,24.625 3.288,23.143 3.288,21.347L3.288,-5.155C3.288,-6.963 1.814,-8.432 0,-8.432" style="fill:rgb(240,65,56);fill-rule:nonzero;"/>
                </g>
                <g transform="matrix(1,0,0,1,63.2871,126.483)">
                    <path d="M0,-0.794L16.259,-0.794C19.11,-0.794 21.415,-3.109 21.415,-5.971L21.415,-21.13C21.415,-23.581 23.42,-25.594 25.861,-25.594L63.821,-25.594C66.263,-25.594 68.268,-23.581 68.268,-21.13L68.268,-3.191C68.268,-0.74 66.263,1.273 63.821,1.273L28.63,1.273C25.78,1.273 23.475,3.588 23.475,6.45L23.475,21.486C23.475,23.307 21.988,24.786 20.187,24.786L0,24.786C-1.8,24.8 -3.287,23.307 -3.287,21.486L-3.287,2.506C-3.287,0.698 -1.8,-0.794 0,-0.794" style="fill:rgb(240,65,56);fill-rule:nonzero;stroke:rgb(240,65,56);stroke-width:0.87px;"/>
                </g>
                <g transform="matrix(1,0,0,1,82.5269,59.9995)">
                    <path d="M0,30.667L-18.038,30.667C-20.503,30.667 -22.527,28.645 -22.527,26.166L-22.527,4.516C-22.527,2.037 -20.503,0 -18.038,0L0,0C2.465,0 4.489,2.037 4.489,4.516L4.489,26.166C4.489,28.645 2.465,30.667 0,30.667" style="fill:rgb(240,65,56);fill-rule:nonzero;"/>
                </g>
            </g>
        </g>
    </g>
</svg>
